<svg xmlns="http://www.w3.org/2000/svg" style="display: none;">
  <symbol id="icon-lock-open" viewBox="0 0 24 32">
   <path d="M14.004 0C8.49 0 4.006 4.488 4.006 10h4c0-3.305 2.689-6 5.998-6S20 6.695 20 10v2H0v14c0 3.312 2.691 6 5.998 6H18c3.309 0 6-2.688 6-6V10c0-5.512-4.484-10-9.996-10zM18 28H5.998c-1.102 0-2-.895-2-2V16H20v10c0 1.105-.898 2-2 2zm-4-6c0 1.109-.895 2-2 2s-2-.891-2-2c0-1.102.895-2 2-2s2 .898 2 2z"/>
  </symbol>

  <symbol id="icon-lock-closed" viewBox="0 0 24 32">
    <path d="M14 0C8.492 0 4.004 4.484 4.004 10v2H0v14c0 3.309 2.691 6 6 6h12c3.309 0 6-2.691 6-6V10c0-5.516-4.488-10-10-10zm-2.004 24C10.895 24 10 23.105 10 22s.895-2 1.996-2a2 2 0 1 1 0 4zM20 12H8.004v-2c0-3.309 2.691-6 5.996-6 3.309 0 6 2.691 6 6v2z"/>
  </symbol>

  <symbol id="icon-button-close" viewBox="0 0 32 32">
  <path d="M16 0c-8.837 0-16 7.163-16 16s7.163 16 16 16 16-7.163 16-16-7.163-16-16-16zM16 29c-7.18 0-13-5.82-13-13s5.82-13 13-13 13 5.82 13 13-5.82 13-13 13z"></path>
  <path d="M21 8l-5 5-5-5-3 3 5 5-5 5 3 3 5-5 5 5 3-3-5-5 5-5z"></path>
  </symbol>
</svg>